<mxfile host="app.diagrams.net" agent="Mozilla/5.0 (Windows NT 10.0; Win64; x64) AppleWebKit/537.36 (KHTML, like Gecko) Chrome/129.0.0.0 Safari/537.36" version="24.7.17">
  <diagram name="第 1 页" id="YbzWW5LpQO2l_ZJEJGdQ">
    <mxGraphModel dx="3864" dy="1906" grid="1" gridSize="10" guides="1" tooltips="1" connect="1" arrows="1" fold="1" page="1" pageScale="1" pageWidth="827" pageHeight="1169" math="0" shadow="0">
      <root>
        <mxCell id="0" />
        <mxCell id="1" parent="0" />
        <mxCell id="81L4wlxiSWu801nx8BuZ-2" value="&lt;p style=&quot;margin:0px;margin-top:4px;text-align:center;&quot;&gt;&lt;i&gt;&amp;lt;&amp;lt;Interface&amp;gt;&amp;gt;&lt;/i&gt;&lt;br&gt;&lt;b&gt;Iterable&lt;/b&gt;&lt;/p&gt;&lt;hr size=&quot;1&quot; style=&quot;border-style:solid;&quot;&gt;&lt;p style=&quot;margin:0px;margin-left:4px;&quot;&gt;+ Iterator():Iterator&lt;br&gt;+ forEach(Consumer): void&lt;/p&gt;" style="verticalAlign=top;align=left;overflow=fill;html=1;whiteSpace=wrap;strokeColor=default;fontFamily=Helvetica;fontSize=12;fontColor=default;fillColor=default;" parent="1" vertex="1">
          <mxGeometry x="-560" y="-530" width="390" height="80" as="geometry" />
        </mxCell>
        <mxCell id="81L4wlxiSWu801nx8BuZ-3" value="&lt;p style=&quot;margin:0px;margin-top:4px;text-align:center;&quot;&gt;&lt;i&gt;&amp;lt;&amp;lt;Interface&amp;gt;&amp;gt;&lt;/i&gt;&lt;br&gt;&lt;b&gt;Iterator&amp;lt;E&amp;gt;&lt;/b&gt;&lt;/p&gt;&lt;hr size=&quot;1&quot; style=&quot;border-style:solid;&quot;&gt;&lt;p style=&quot;margin:0px;margin-left:4px;&quot;&gt;+ hasNext():boolean&lt;br&gt;+ next():E&lt;/p&gt;" style="verticalAlign=top;align=left;overflow=fill;html=1;whiteSpace=wrap;strokeColor=default;fontFamily=Helvetica;fontSize=12;fontColor=default;fillColor=default;" parent="1" vertex="1">
          <mxGeometry x="290" y="-350" width="190" height="80" as="geometry" />
        </mxCell>
        <mxCell id="81L4wlxiSWu801nx8BuZ-4" value="&lt;p style=&quot;margin:0px;margin-top:4px;text-align:center;&quot;&gt;&lt;i&gt;&amp;lt;&amp;lt;Interface&amp;gt;&amp;gt;&lt;/i&gt;&lt;br&gt;&lt;b&gt;Collection&lt;/b&gt;&lt;/p&gt;&lt;hr size=&quot;1&quot; style=&quot;border-style:solid;&quot;&gt;&lt;p style=&quot;margin:0px;margin-left:4px;&quot;&gt;+ size():int&lt;br&gt;+ isEmpty():bollean&lt;/p&gt;&lt;p style=&quot;margin:0px;margin-left:4px;&quot;&gt;+ contains(Object):boolean&lt;/p&gt;&lt;p style=&quot;margin:0px;margin-left:4px;&quot;&gt;+ iterator():Iterator&amp;lt;T&amp;gt;&lt;/p&gt;&lt;p style=&quot;margin:0px;margin-left:4px;&quot;&gt;+ toArray():Object[]&lt;/p&gt;&lt;p style=&quot;margin:0px;margin-left:4px;&quot;&gt;+ toArray(T[]):&amp;lt;T&amp;gt; T[]&lt;/p&gt;&lt;p style=&quot;margin:0px;margin-left:4px;&quot;&gt;+ add(E):boolean&lt;/p&gt;&lt;p style=&quot;margin:0px;margin-left:4px;&quot;&gt;+ remove(Object):boolean&lt;/p&gt;&lt;p style=&quot;margin:0px;margin-left:4px;&quot;&gt;+ containsAll(Collection&amp;lt;?&amp;gt;):boolean&lt;/p&gt;&lt;p style=&quot;margin:0px;margin-left:4px;&quot;&gt;+ removeALl(Collection&amp;lt;?&amp;gt;):boolean&lt;/p&gt;&lt;p style=&quot;margin:0px;margin-left:4px;&quot;&gt;+ retainAll(Collenction&amp;lt;?&amp;gt;):boolean&lt;/p&gt;&lt;p style=&quot;margin:0px;margin-left:4px;&quot;&gt;+ clear():void&lt;/p&gt;&lt;p style=&quot;margin:0px;margin-left:4px;&quot;&gt;+ equals(Object):void&lt;/p&gt;&lt;p style=&quot;margin:0px;margin-left:4px;&quot;&gt;+ hashCode():int&lt;/p&gt;&lt;p style=&quot;margin:0px;margin-left:4px;&quot;&gt;&lt;br&gt;&lt;/p&gt;" style="verticalAlign=top;align=left;overflow=fill;html=1;whiteSpace=wrap;strokeColor=default;fontFamily=Helvetica;fontSize=12;fontColor=default;fillColor=default;" parent="1" vertex="1">
          <mxGeometry x="-510" y="-330" width="290" height="250" as="geometry" />
        </mxCell>
        <mxCell id="81L4wlxiSWu801nx8BuZ-5" value="" style="endArrow=block;dashed=1;endFill=0;endSize=12;html=1;rounded=0;fontFamily=Helvetica;fontSize=12;fontColor=default;entryX=0.5;entryY=1;entryDx=0;entryDy=0;" parent="1" source="81L4wlxiSWu801nx8BuZ-4" target="81L4wlxiSWu801nx8BuZ-2" edge="1">
          <mxGeometry width="160" relative="1" as="geometry">
            <mxPoint x="450" y="510" as="sourcePoint" />
            <mxPoint x="610" y="510" as="targetPoint" />
          </mxGeometry>
        </mxCell>
        <mxCell id="81L4wlxiSWu801nx8BuZ-7" value="&lt;p style=&quot;margin:0px;margin-top:4px;text-align:center;&quot;&gt;&lt;i&gt;&amp;lt;&amp;lt;Interface&amp;gt;&amp;gt;&lt;/i&gt;&lt;br&gt;&lt;b&gt;SequenceCollection&amp;lt;E&amp;gt;&lt;/b&gt;&lt;/p&gt;&lt;hr size=&quot;1&quot; style=&quot;border-style:solid;&quot;&gt;&lt;p style=&quot;margin:0px;margin-left:4px;&quot;&gt;+ reversed():SequenceCollection&amp;lt;T&amp;gt;&lt;br&gt;+ addFirst(E):void&lt;/p&gt;&lt;p style=&quot;margin:0px;margin-left:4px;&quot;&gt;+ addLast(E):void&lt;/p&gt;&lt;p style=&quot;margin:0px;margin-left:4px;&quot;&gt;+ getFirst():E&lt;/p&gt;&lt;p style=&quot;margin:0px;margin-left:4px;&quot;&gt;+ getLast():E&lt;/p&gt;&lt;p style=&quot;margin:0px;margin-left:4px;&quot;&gt;+ removeFirst():E&lt;/p&gt;&lt;p style=&quot;margin:0px;margin-left:4px;&quot;&gt;+ removeLast():E&lt;/p&gt;&lt;p style=&quot;margin:0px;margin-left:4px;&quot;&gt;&lt;br&gt;&lt;/p&gt;&lt;p style=&quot;margin:0px;margin-left:4px;&quot;&gt;&lt;br&gt;&lt;/p&gt;" style="verticalAlign=top;align=left;overflow=fill;html=1;whiteSpace=wrap;strokeColor=default;fontFamily=Helvetica;fontSize=12;fontColor=default;fillColor=default;" parent="1" vertex="1">
          <mxGeometry x="-420" y="190" width="230" height="155" as="geometry" />
        </mxCell>
        <mxCell id="81L4wlxiSWu801nx8BuZ-8" value="" style="endArrow=block;dashed=1;endFill=0;endSize=12;html=1;rounded=0;fontFamily=Helvetica;fontSize=12;fontColor=default;exitX=0.5;exitY=0;exitDx=0;exitDy=0;entryX=0.5;entryY=1;entryDx=0;entryDy=0;" parent="1" source="81L4wlxiSWu801nx8BuZ-7" target="81L4wlxiSWu801nx8BuZ-4" edge="1">
          <mxGeometry width="160" relative="1" as="geometry">
            <mxPoint x="342.01" y="524" as="sourcePoint" />
            <mxPoint x="327.9799999999998" y="450" as="targetPoint" />
          </mxGeometry>
        </mxCell>
        <mxCell id="81L4wlxiSWu801nx8BuZ-9" value="&lt;p style=&quot;margin:0px;margin-top:4px;text-align:center;&quot;&gt;&lt;i&gt;&amp;lt;&amp;lt;Interface&amp;gt;&amp;gt;&lt;/i&gt;&lt;br&gt;&lt;b&gt;List&amp;lt;E&amp;gt;&lt;/b&gt;&lt;/p&gt;&lt;hr size=&quot;1&quot; style=&quot;border-style:solid;&quot;&gt;&lt;p style=&quot;margin:0px;margin-left:4px;&quot;&gt;+ size():int&lt;/p&gt;&lt;p style=&quot;margin:0px;margin-left:4px;&quot;&gt;+ isEmpty():boolean&lt;/p&gt;&lt;p style=&quot;margin:0px;margin-left:4px;&quot;&gt;+ contains(Object):boolean&lt;/p&gt;&lt;p style=&quot;margin:0px;margin-left:4px;&quot;&gt;+ iterator():Iterator&amp;lt;E&amp;gt;&lt;/p&gt;&lt;p style=&quot;margin:0px;margin-left:4px;&quot;&gt;+ toArray():Object[]&lt;/p&gt;&lt;p style=&quot;margin:0px;margin-left:4px;&quot;&gt;+ toArray(T[]):T[]&lt;/p&gt;&lt;p style=&quot;margin:0px;margin-left:4px;&quot;&gt;+ add(E):boolean&lt;/p&gt;&lt;p style=&quot;margin:0px;margin-left:4px;&quot;&gt;+ remove(Object):boolean&lt;/p&gt;&lt;p style=&quot;margin:0px;margin-left:4px;&quot;&gt;+ containsAll(Collection&amp;lt;?&amp;gt;):boolean&lt;/p&gt;&lt;p style=&quot;margin:0px;margin-left:4px;&quot;&gt;+ addAll(Collenction&amp;lt;?&amp;gt;):boolean&lt;/p&gt;&lt;p style=&quot;margin:0px;margin-left:4px;&quot;&gt;+ addAll(int,collection&amp;lt;?&amp;gt;):boolean&lt;/p&gt;&lt;p style=&quot;margin:0px;margin-left:4px;&quot;&gt;+ removeAll(collection&amp;lt;?&amp;gt;):boolean&lt;/p&gt;&lt;p style=&quot;margin:0px;margin-left:4px;&quot;&gt;+ retainAll(Collenction&amp;lt;?&amp;gt;):boolean&lt;/p&gt;&lt;p style=&quot;margin:0px;margin-left:4px;&quot;&gt;+ replaceAll(UnaryOperator&amp;lt;E&amp;gt;):void&lt;/p&gt;&lt;p style=&quot;margin:0px;margin-left:4px;&quot;&gt;+ sort(Comparator&amp;lt;?&amp;gt;):void&lt;/p&gt;&lt;p style=&quot;margin:0px;margin-left:4px;&quot;&gt;+ clear():void&lt;/p&gt;&lt;p style=&quot;margin:0px;margin-left:4px;&quot;&gt;+ equals(Object):boolean&lt;/p&gt;&lt;p style=&quot;margin:0px;margin-left:4px;&quot;&gt;+ hashCode():int&lt;/p&gt;&lt;p style=&quot;margin:0px;margin-left:4px;&quot;&gt;+ get(int):E&lt;/p&gt;&lt;p style=&quot;margin:0px;margin-left:4px;&quot;&gt;+ set(int,E):E&lt;/p&gt;&lt;p style=&quot;margin:0px;margin-left:4px;&quot;&gt;+ add(int,E):void&lt;/p&gt;&lt;p style=&quot;margin:0px;margin-left:4px;&quot;&gt;+ remove(int):E&lt;/p&gt;&lt;p style=&quot;margin:0px;margin-left:4px;&quot;&gt;+ indexOf(Object):int&lt;/p&gt;&lt;p style=&quot;margin:0px;margin-left:4px;&quot;&gt;+ lastIndexOf(Object):int&lt;/p&gt;&lt;p style=&quot;margin:0px;margin-left:4px;&quot;&gt;+ listIterator():ListIterator&amp;lt;E&amp;gt;&lt;/p&gt;&lt;p style=&quot;margin:0px;margin-left:4px;&quot;&gt;+ listIterator(int):ListIterator&amp;lt;E&amp;gt;&lt;/p&gt;&lt;p style=&quot;margin:0px;margin-left:4px;&quot;&gt;+ subList(int,int):List&amp;lt;E&amp;gt;&lt;/p&gt;&lt;p style=&quot;margin:0px;margin-left:4px;&quot;&gt;+ spliterator():Spliterator&amp;lt;E&amp;gt;&lt;/p&gt;&lt;p style=&quot;margin:0px;margin-left:4px;&quot;&gt;+ addFirst(E):void&lt;/p&gt;&lt;p style=&quot;margin:0px;margin-left:4px;&quot;&gt;+ addLast(E):void&lt;/p&gt;&lt;p style=&quot;margin:0px;margin-left:4px;&quot;&gt;+ getFirst():E&lt;/p&gt;&lt;p style=&quot;margin:0px;margin-left:4px;&quot;&gt;+ getLast():E&lt;/p&gt;&lt;p style=&quot;margin:0px;margin-left:4px;&quot;&gt;+ removeFirst():E&lt;/p&gt;&lt;p style=&quot;margin:0px;margin-left:4px;&quot;&gt;+ removeLast():E&lt;/p&gt;&lt;p style=&quot;margin:0px;margin-left:4px;&quot;&gt;+ reversed():List&amp;lt;E&amp;gt;&lt;/p&gt;&lt;p style=&quot;margin:0px;margin-left:4px;&quot;&gt;+ _of():List&amp;lt;E&amp;gt;&lt;/p&gt;&lt;p style=&quot;margin:0px;margin-left:4px;&quot;&gt;+ _of(E):List[E]&lt;/p&gt;&lt;p style=&quot;margin:0px;margin-left:4px;&quot;&gt;+ _of(e1:E,e2:E):List&amp;lt;E&amp;gt;&lt;/p&gt;&lt;p style=&quot;margin:0px;margin-left:4px;&quot;&gt;+ _of(e1:E,e2:E,e3:E):List&amp;lt;E&amp;gt;&lt;/p&gt;&lt;p style=&quot;margin:0px;margin-left:4px;&quot;&gt;+ _of(E..):List&amp;lt;E&amp;gt;&lt;/p&gt;" style="verticalAlign=top;align=left;overflow=fill;html=1;whiteSpace=wrap;strokeColor=default;fontFamily=Helvetica;fontSize=12;fontColor=default;fillColor=default;" parent="1" vertex="1">
          <mxGeometry x="-413" y="420" width="230" height="630" as="geometry" />
        </mxCell>
        <mxCell id="81L4wlxiSWu801nx8BuZ-10" value="" style="endArrow=block;dashed=1;endFill=0;endSize=12;html=1;rounded=0;fontFamily=Helvetica;fontSize=12;fontColor=default;exitX=0.5;exitY=0;exitDx=0;exitDy=0;entryX=0.5;entryY=1;entryDx=0;entryDy=0;" parent="1" source="81L4wlxiSWu801nx8BuZ-9" target="81L4wlxiSWu801nx8BuZ-7" edge="1">
          <mxGeometry width="160" relative="1" as="geometry">
            <mxPoint x="450" y="430" as="sourcePoint" />
            <mxPoint x="610" y="430" as="targetPoint" />
          </mxGeometry>
        </mxCell>
        <mxCell id="81L4wlxiSWu801nx8BuZ-11" value="&lt;p style=&quot;margin:0px;margin-top:4px;text-align:center;&quot;&gt;&lt;i&gt;&lt;b style=&quot;background-color: initial;&quot;&gt;&amp;lt;&amp;lt;abstract&amp;gt;&amp;gt;&lt;/b&gt;&lt;b&gt;AbstractCollection&amp;lt;E&amp;gt;&lt;/b&gt;&lt;/i&gt;&lt;/p&gt;&lt;hr size=&quot;1&quot; style=&quot;border-style:solid;&quot;&gt;&lt;p style=&quot;margin:0px;margin-left:4px;&quot;&gt;&lt;span style=&quot;background-color: initial;&quot;&gt;+ iterator():Iterator&amp;lt;E&amp;gt;&lt;/span&gt;&lt;/p&gt;&lt;p style=&quot;margin:0px;margin-left:4px;&quot;&gt;&lt;span style=&quot;background-color: initial;&quot;&gt;+ size():int&lt;/span&gt;&lt;/p&gt;&lt;p style=&quot;margin:0px;margin-left:4px;&quot;&gt;&lt;span style=&quot;background-color: initial;&quot;&gt;+ isEmpty():boolean&lt;/span&gt;&lt;/p&gt;&lt;p style=&quot;margin:0px;margin-left:4px;&quot;&gt;&lt;span style=&quot;background-color: initial;&quot;&gt;+ contains(Object):boolean&lt;/span&gt;&lt;/p&gt;&lt;p style=&quot;margin:0px;margin-left:4px;&quot;&gt;&lt;span style=&quot;background-color: initial;&quot;&gt;+ toArray():Object[]&lt;/span&gt;&lt;/p&gt;&lt;p style=&quot;margin:0px;margin-left:4px;&quot;&gt;&lt;span style=&quot;background-color: initial;&quot;&gt;+ toArray(T[]):T[]&lt;/span&gt;&lt;/p&gt;&lt;p style=&quot;margin:0px;margin-left:4px;&quot;&gt;&lt;span style=&quot;background-color: initial;&quot;&gt;+ _finishToArray(T[] ,Iterator&amp;lt;?&amp;gt;):T[]&lt;/span&gt;&lt;/p&gt;&lt;p style=&quot;margin:0px;margin-left:4px;&quot;&gt;&lt;span style=&quot;background-color: initial;&quot;&gt;+ add(E):boolean&lt;/span&gt;&lt;/p&gt;&lt;p style=&quot;margin:0px;margin-left:4px;&quot;&gt;&lt;span style=&quot;background-color: initial;&quot;&gt;+ remove(Object):boolean&lt;/span&gt;&lt;/p&gt;&lt;p style=&quot;margin:0px;margin-left:4px;&quot;&gt;&lt;span style=&quot;background-color: initial;&quot;&gt;+ containsAll(Collenction&amp;lt;?&amp;gt;):boolean&lt;/span&gt;&lt;/p&gt;&lt;p style=&quot;margin:0px;margin-left:4px;&quot;&gt;&lt;span style=&quot;background-color: initial;&quot;&gt;+ addAll(Collection&amp;lt;?&amp;gt;):boolean&lt;/span&gt;&lt;/p&gt;&lt;p style=&quot;margin:0px;margin-left:4px;&quot;&gt;&lt;span style=&quot;background-color: initial;&quot;&gt;+ removeAll(Collection&amp;lt;?&amp;gt;):boolean&lt;/span&gt;&lt;/p&gt;&lt;p style=&quot;margin:0px;margin-left:4px;&quot;&gt;&lt;span style=&quot;background-color: initial;&quot;&gt;+ retainAll(Collection&amp;lt;?&amp;gt;):boolean&lt;/span&gt;&lt;/p&gt;&lt;p style=&quot;margin:0px;margin-left:4px;&quot;&gt;&lt;span style=&quot;background-color: initial;&quot;&gt;+ clear():void&lt;/span&gt;&lt;/p&gt;&lt;p style=&quot;margin:0px;margin-left:4px;&quot;&gt;&lt;span style=&quot;background-color: initial;&quot;&gt;+ toString():String&lt;/span&gt;&lt;/p&gt;&lt;p style=&quot;margin:0px;margin-left:4px;&quot;&gt;&lt;span style=&quot;background-color: initial;&quot;&gt;&lt;br&gt;&lt;/span&gt;&lt;/p&gt;" style="verticalAlign=top;align=left;overflow=fill;html=1;whiteSpace=wrap;strokeColor=default;fontFamily=Helvetica;fontSize=12;fontColor=default;fillColor=default;" parent="1" vertex="1">
          <mxGeometry x="-1000" y="190" width="230" height="250" as="geometry" />
        </mxCell>
        <mxCell id="81L4wlxiSWu801nx8BuZ-12" value="" style="endArrow=block;dashed=1;endFill=0;endSize=12;html=1;rounded=0;fontFamily=Helvetica;fontSize=12;fontColor=default;exitX=0.443;exitY=-0.032;exitDx=0;exitDy=0;exitPerimeter=0;entryX=0.528;entryY=1.013;entryDx=0;entryDy=0;entryPerimeter=0;" parent="1" edge="1">
          <mxGeometry width="160" relative="1" as="geometry">
            <mxPoint x="-910.0000000000001" y="178.75" as="sourcePoint" />
            <mxPoint x="-368.7700000000001" y="-80" as="targetPoint" />
          </mxGeometry>
        </mxCell>
        <mxCell id="81L4wlxiSWu801nx8BuZ-13" value="" style="endArrow=block;dashed=1;endFill=0;endSize=12;html=1;rounded=0;fontFamily=Helvetica;fontSize=12;fontColor=default;exitX=0.567;exitY=-0.001;exitDx=0;exitDy=0;exitPerimeter=0;" parent="1" source="81L4wlxiSWu801nx8BuZ-50" target="81L4wlxiSWu801nx8BuZ-11" edge="1">
          <mxGeometry width="160" relative="1" as="geometry">
            <mxPoint x="-2.2737367544323206e-13" y="740" as="sourcePoint" />
            <mxPoint x="34.069999999999936" y="659.5" as="targetPoint" />
          </mxGeometry>
        </mxCell>
        <mxCell id="81L4wlxiSWu801nx8BuZ-18" value="ArrayList" style="swimlane;fontStyle=1;align=center;verticalAlign=top;childLayout=stackLayout;horizontal=1;startSize=26;horizontalStack=0;resizeParent=1;resizeParentMax=0;resizeLast=0;collapsible=1;marginBottom=0;whiteSpace=wrap;html=1;strokeColor=default;fontFamily=Helvetica;fontSize=12;fontColor=default;fillColor=default;" parent="1" vertex="1">
          <mxGeometry x="-1370" y="1460" width="440" height="710" as="geometry">
            <mxRectangle x="-360" y="1083" width="100" height="30" as="alternateBounds" />
          </mxGeometry>
        </mxCell>
        <mxCell id="81L4wlxiSWu801nx8BuZ-22" value="- _DEFAULT_CAPACITY:int&lt;div&gt;&lt;br&gt;&lt;/div&gt;" style="text;strokeColor=none;fillColor=none;align=left;verticalAlign=top;spacingLeft=4;spacingRight=4;overflow=hidden;rotatable=0;points=[[0,0.5],[1,0.5]];portConstraint=eastwest;whiteSpace=wrap;html=1;fontFamily=Helvetica;fontSize=12;fontColor=default;" parent="81L4wlxiSWu801nx8BuZ-18" vertex="1">
          <mxGeometry y="26" width="440" height="26" as="geometry" />
        </mxCell>
        <object label="&lt;div&gt;- _EMPTY_ELEMENTDATA:Object{}&lt;/div&gt;" em="12" id="81L4wlxiSWu801nx8BuZ-23">
          <mxCell style="text;strokeColor=none;fillColor=none;align=left;verticalAlign=top;spacingLeft=4;spacingRight=4;overflow=hidden;rotatable=0;points=[[0,0.5],[1,0.5]];portConstraint=eastwest;whiteSpace=wrap;html=1;fontFamily=Helvetica;fontSize=12;fontColor=default;" parent="81L4wlxiSWu801nx8BuZ-18" vertex="1">
            <mxGeometry y="52" width="440" height="26" as="geometry" />
          </mxCell>
        </object>
        <object label="&lt;div&gt;- _DEFAULTCAPACITY_EMPTY_ELEMENTDATA：object{}&lt;/div&gt;" em="12" id="81L4wlxiSWu801nx8BuZ-25">
          <mxCell style="text;strokeColor=none;fillColor=none;align=left;verticalAlign=top;spacingLeft=4;spacingRight=4;overflow=hidden;rotatable=0;points=[[0,0.5],[1,0.5]];portConstraint=eastwest;whiteSpace=wrap;html=1;fontFamily=Helvetica;fontSize=12;fontColor=default;" parent="81L4wlxiSWu801nx8BuZ-18" vertex="1">
            <mxGeometry y="78" width="440" height="32" as="geometry" />
          </mxCell>
        </object>
        <object label="- elementData:Object[]" em="12" id="81L4wlxiSWu801nx8BuZ-24">
          <mxCell style="text;strokeColor=none;fillColor=none;align=left;verticalAlign=top;spacingLeft=4;spacingRight=4;overflow=hidden;rotatable=0;points=[[0,0.5],[1,0.5]];portConstraint=eastwest;whiteSpace=wrap;html=1;fontFamily=Helvetica;fontSize=12;fontColor=default;" parent="81L4wlxiSWu801nx8BuZ-18" vertex="1">
            <mxGeometry y="110" width="440" height="32" as="geometry" />
          </mxCell>
        </object>
        <object label="- size:int" em="12" id="81L4wlxiSWu801nx8BuZ-19">
          <mxCell style="text;strokeColor=none;fillColor=none;align=left;verticalAlign=top;spacingLeft=4;spacingRight=4;overflow=hidden;rotatable=0;points=[[0,0.5],[1,0.5]];portConstraint=eastwest;whiteSpace=wrap;html=1;fontFamily=Helvetica;fontSize=12;fontColor=default;" parent="81L4wlxiSWu801nx8BuZ-18" vertex="1">
            <mxGeometry y="142" width="440" height="32" as="geometry" />
          </mxCell>
        </object>
        <mxCell id="81L4wlxiSWu801nx8BuZ-39" value="" style="line;strokeWidth=1;fillColor=none;align=left;verticalAlign=middle;spacingTop=-1;spacingLeft=3;spacingRight=3;rotatable=0;labelPosition=right;points=[];portConstraint=eastwest;strokeColor=inherit;fontFamily=Helvetica;fontSize=12;fontColor=default;" parent="81L4wlxiSWu801nx8BuZ-18" vertex="1">
          <mxGeometry y="174" width="440" height="8" as="geometry" />
        </mxCell>
        <mxCell id="81L4wlxiSWu801nx8BuZ-29" value="+ ArrayList(initalCapactity:int)" style="text;strokeColor=none;fillColor=none;align=left;verticalAlign=top;spacingLeft=4;spacingRight=4;overflow=hidden;rotatable=0;points=[[0,0.5],[1,0.5]];portConstraint=eastwest;whiteSpace=wrap;html=1;fontFamily=Helvetica;fontSize=12;fontColor=default;" parent="81L4wlxiSWu801nx8BuZ-18" vertex="1">
          <mxGeometry y="182" width="440" height="26" as="geometry" />
        </mxCell>
        <mxCell id="81L4wlxiSWu801nx8BuZ-30" value="+ ArrayList()&lt;div&gt;&lt;br&gt;&lt;/div&gt;" style="text;strokeColor=none;fillColor=none;align=left;verticalAlign=top;spacingLeft=4;spacingRight=4;overflow=hidden;rotatable=0;points=[[0,0.5],[1,0.5]];portConstraint=eastwest;whiteSpace=wrap;html=1;fontFamily=Helvetica;fontSize=12;fontColor=default;" parent="81L4wlxiSWu801nx8BuZ-18" vertex="1">
          <mxGeometry y="208" width="440" height="26" as="geometry" />
        </mxCell>
        <mxCell id="81L4wlxiSWu801nx8BuZ-36" value="+ ArrayList(Collection&amp;lt;?&amp;gt;)&lt;div&gt;&lt;br&gt;&lt;/div&gt;" style="text;strokeColor=none;fillColor=none;align=left;verticalAlign=top;spacingLeft=4;spacingRight=4;overflow=hidden;rotatable=0;points=[[0,0.5],[1,0.5]];portConstraint=eastwest;whiteSpace=wrap;html=1;fontFamily=Helvetica;fontSize=12;fontColor=default;" parent="81L4wlxiSWu801nx8BuZ-18" vertex="1">
          <mxGeometry y="234" width="440" height="26" as="geometry" />
        </mxCell>
        <mxCell id="81L4wlxiSWu801nx8BuZ-20" value="" style="line;strokeWidth=1;fillColor=none;align=left;verticalAlign=middle;spacingTop=-1;spacingLeft=3;spacingRight=3;rotatable=0;labelPosition=right;points=[];portConstraint=eastwest;strokeColor=inherit;fontFamily=Helvetica;fontSize=12;fontColor=default;" parent="81L4wlxiSWu801nx8BuZ-18" vertex="1">
          <mxGeometry y="260" width="440" height="8" as="geometry" />
        </mxCell>
        <mxCell id="81L4wlxiSWu801nx8BuZ-37" value="&lt;div&gt;+ trimToSize();void&lt;/div&gt;" style="text;strokeColor=none;fillColor=none;align=left;verticalAlign=top;spacingLeft=4;spacingRight=4;overflow=hidden;rotatable=0;points=[[0,0.5],[1,0.5]];portConstraint=eastwest;whiteSpace=wrap;html=1;fontFamily=Helvetica;fontSize=12;fontColor=default;" parent="81L4wlxiSWu801nx8BuZ-18" vertex="1">
          <mxGeometry y="268" width="440" height="26" as="geometry" />
        </mxCell>
        <mxCell id="81L4wlxiSWu801nx8BuZ-93" value="&lt;div&gt;+ exsureCapacity(int):void&lt;/div&gt;" style="text;strokeColor=none;fillColor=none;align=left;verticalAlign=top;spacingLeft=4;spacingRight=4;overflow=hidden;rotatable=0;points=[[0,0.5],[1,0.5]];portConstraint=eastwest;whiteSpace=wrap;html=1;fontFamily=Helvetica;fontSize=12;fontColor=default;" parent="81L4wlxiSWu801nx8BuZ-18" vertex="1">
          <mxGeometry y="294" width="440" height="26" as="geometry" />
        </mxCell>
        <mxCell id="81L4wlxiSWu801nx8BuZ-94" value="&lt;div&gt;- grow(int):void&lt;/div&gt;&lt;div&gt;&lt;br&gt;&lt;/div&gt;" style="text;strokeColor=none;fillColor=none;align=left;verticalAlign=top;spacingLeft=4;spacingRight=4;overflow=hidden;rotatable=0;points=[[0,0.5],[1,0.5]];portConstraint=eastwest;whiteSpace=wrap;html=1;fontFamily=Helvetica;fontSize=12;fontColor=default;" parent="81L4wlxiSWu801nx8BuZ-18" vertex="1">
          <mxGeometry y="320" width="440" height="26" as="geometry" />
        </mxCell>
        <mxCell id="81L4wlxiSWu801nx8BuZ-103" value="&lt;div&gt;- grow(int):void&amp;nbsp; &amp;nbsp; &amp;nbsp; //elementData曾长1&lt;/div&gt;&lt;div&gt;&lt;br&gt;&lt;/div&gt;" style="text;strokeColor=none;fillColor=none;align=left;verticalAlign=top;spacingLeft=4;spacingRight=4;overflow=hidden;rotatable=0;points=[[0,0.5],[1,0.5]];portConstraint=eastwest;whiteSpace=wrap;html=1;fontFamily=Helvetica;fontSize=12;fontColor=default;" parent="81L4wlxiSWu801nx8BuZ-18" vertex="1">
          <mxGeometry y="346" width="440" height="26" as="geometry" />
        </mxCell>
        <mxCell id="81L4wlxiSWu801nx8BuZ-104" value="&lt;div&gt;+ size():int&amp;nbsp; //&lt;/div&gt;" style="text;strokeColor=none;fillColor=none;align=left;verticalAlign=top;spacingLeft=4;spacingRight=4;overflow=hidden;rotatable=0;points=[[0,0.5],[1,0.5]];portConstraint=eastwest;whiteSpace=wrap;html=1;fontFamily=Helvetica;fontSize=12;fontColor=default;" parent="81L4wlxiSWu801nx8BuZ-18" vertex="1">
          <mxGeometry y="372" width="440" height="26" as="geometry" />
        </mxCell>
        <mxCell id="81L4wlxiSWu801nx8BuZ-106" value="+ isEmpty():boolean" style="text;strokeColor=none;fillColor=none;align=left;verticalAlign=top;spacingLeft=4;spacingRight=4;overflow=hidden;rotatable=0;points=[[0,0.5],[1,0.5]];portConstraint=eastwest;whiteSpace=wrap;html=1;fontFamily=Helvetica;fontSize=12;fontColor=default;" parent="81L4wlxiSWu801nx8BuZ-18" vertex="1">
          <mxGeometry y="398" width="440" height="26" as="geometry" />
        </mxCell>
        <mxCell id="81L4wlxiSWu801nx8BuZ-107" value="+ contains(Object):boolean" style="text;strokeColor=none;fillColor=none;align=left;verticalAlign=top;spacingLeft=4;spacingRight=4;overflow=hidden;rotatable=0;points=[[0,0.5],[1,0.5]];portConstraint=eastwest;whiteSpace=wrap;html=1;fontFamily=Helvetica;fontSize=12;fontColor=default;" parent="81L4wlxiSWu801nx8BuZ-18" vertex="1">
          <mxGeometry y="424" width="440" height="26" as="geometry" />
        </mxCell>
        <mxCell id="81L4wlxiSWu801nx8BuZ-108" value="+ indexOf(Object):int" style="text;strokeColor=none;fillColor=none;align=left;verticalAlign=top;spacingLeft=4;spacingRight=4;overflow=hidden;rotatable=0;points=[[0,0.5],[1,0.5]];portConstraint=eastwest;whiteSpace=wrap;html=1;fontFamily=Helvetica;fontSize=12;fontColor=default;" parent="81L4wlxiSWu801nx8BuZ-18" vertex="1">
          <mxGeometry y="450" width="440" height="26" as="geometry" />
        </mxCell>
        <mxCell id="81L4wlxiSWu801nx8BuZ-109" value="+ lastIndexOf(Object):int" style="text;strokeColor=none;fillColor=none;align=left;verticalAlign=top;spacingLeft=4;spacingRight=4;overflow=hidden;rotatable=0;points=[[0,0.5],[1,0.5]];portConstraint=eastwest;whiteSpace=wrap;html=1;fontFamily=Helvetica;fontSize=12;fontColor=default;" parent="81L4wlxiSWu801nx8BuZ-18" vertex="1">
          <mxGeometry y="476" width="440" height="26" as="geometry" />
        </mxCell>
        <mxCell id="81L4wlxiSWu801nx8BuZ-110" value="+ clone():Object" style="text;strokeColor=none;fillColor=none;align=left;verticalAlign=top;spacingLeft=4;spacingRight=4;overflow=hidden;rotatable=0;points=[[0,0.5],[1,0.5]];portConstraint=eastwest;whiteSpace=wrap;html=1;fontFamily=Helvetica;fontSize=12;fontColor=default;" parent="81L4wlxiSWu801nx8BuZ-18" vertex="1">
          <mxGeometry y="502" width="440" height="26" as="geometry" />
        </mxCell>
        <mxCell id="81L4wlxiSWu801nx8BuZ-111" value="+ toArray():Object[]" style="text;strokeColor=none;fillColor=none;align=left;verticalAlign=top;spacingLeft=4;spacingRight=4;overflow=hidden;rotatable=0;points=[[0,0.5],[1,0.5]];portConstraint=eastwest;whiteSpace=wrap;html=1;fontFamily=Helvetica;fontSize=12;fontColor=default;" parent="81L4wlxiSWu801nx8BuZ-18" vertex="1">
          <mxGeometry y="528" width="440" height="26" as="geometry" />
        </mxCell>
        <mxCell id="81L4wlxiSWu801nx8BuZ-112" value="+ get(int):E" style="text;strokeColor=none;fillColor=none;align=left;verticalAlign=top;spacingLeft=4;spacingRight=4;overflow=hidden;rotatable=0;points=[[0,0.5],[1,0.5]];portConstraint=eastwest;whiteSpace=wrap;html=1;fontFamily=Helvetica;fontSize=12;fontColor=default;" parent="81L4wlxiSWu801nx8BuZ-18" vertex="1">
          <mxGeometry y="554" width="440" height="26" as="geometry" />
        </mxCell>
        <mxCell id="81L4wlxiSWu801nx8BuZ-113" value="+ getFirst():E" style="text;strokeColor=none;fillColor=none;align=left;verticalAlign=top;spacingLeft=4;spacingRight=4;overflow=hidden;rotatable=0;points=[[0,0.5],[1,0.5]];portConstraint=eastwest;whiteSpace=wrap;html=1;fontFamily=Helvetica;fontSize=12;fontColor=default;" parent="81L4wlxiSWu801nx8BuZ-18" vertex="1">
          <mxGeometry y="580" width="440" height="26" as="geometry" />
        </mxCell>
        <mxCell id="81L4wlxiSWu801nx8BuZ-114" value="+ getLast():E" style="text;strokeColor=none;fillColor=none;align=left;verticalAlign=top;spacingLeft=4;spacingRight=4;overflow=hidden;rotatable=0;points=[[0,0.5],[1,0.5]];portConstraint=eastwest;whiteSpace=wrap;html=1;fontFamily=Helvetica;fontSize=12;fontColor=default;" parent="81L4wlxiSWu801nx8BuZ-18" vertex="1">
          <mxGeometry y="606" width="440" height="26" as="geometry" />
        </mxCell>
        <mxCell id="81L4wlxiSWu801nx8BuZ-115" value="+ set(int ,E):E" style="text;strokeColor=none;fillColor=none;align=left;verticalAlign=top;spacingLeft=4;spacingRight=4;overflow=hidden;rotatable=0;points=[[0,0.5],[1,0.5]];portConstraint=eastwest;whiteSpace=wrap;html=1;fontFamily=Helvetica;fontSize=12;fontColor=default;" parent="81L4wlxiSWu801nx8BuZ-18" vertex="1">
          <mxGeometry y="632" width="440" height="26" as="geometry" />
        </mxCell>
        <mxCell id="81L4wlxiSWu801nx8BuZ-116" value="+ add(E):boolean" style="text;strokeColor=none;fillColor=none;align=left;verticalAlign=top;spacingLeft=4;spacingRight=4;overflow=hidden;rotatable=0;points=[[0,0.5],[1,0.5]];portConstraint=eastwest;whiteSpace=wrap;html=1;fontFamily=Helvetica;fontSize=12;fontColor=default;" parent="81L4wlxiSWu801nx8BuZ-18" vertex="1">
          <mxGeometry y="658" width="440" height="26" as="geometry" />
        </mxCell>
        <mxCell id="81L4wlxiSWu801nx8BuZ-117" value="+ add(int, E):void" style="text;strokeColor=none;fillColor=none;align=left;verticalAlign=top;spacingLeft=4;spacingRight=4;overflow=hidden;rotatable=0;points=[[0,0.5],[1,0.5]];portConstraint=eastwest;whiteSpace=wrap;html=1;fontFamily=Helvetica;fontSize=12;fontColor=default;" parent="81L4wlxiSWu801nx8BuZ-18" vertex="1">
          <mxGeometry y="684" width="440" height="26" as="geometry" />
        </mxCell>
        <mxCell id="81L4wlxiSWu801nx8BuZ-50" value="&lt;b&gt;&lt;i&gt;&amp;lt;&amp;lt;abstract&amp;gt;&amp;gt;AbstractList&amp;lt;E&amp;gt;&lt;/i&gt;&lt;/b&gt;" style="swimlane;fontStyle=1;align=center;verticalAlign=top;childLayout=stackLayout;horizontal=1;startSize=26;horizontalStack=0;resizeParent=1;resizeParentMax=0;resizeLast=0;collapsible=1;marginBottom=0;whiteSpace=wrap;html=1;strokeColor=default;fontFamily=Helvetica;fontSize=12;fontColor=default;fillColor=default;" parent="1" vertex="1">
          <mxGeometry x="-1070" y="600" width="360" height="450" as="geometry" />
        </mxCell>
        <mxCell id="81L4wlxiSWu801nx8BuZ-51" value="# modCount:int" style="text;strokeColor=none;fillColor=none;align=left;verticalAlign=top;spacingLeft=4;spacingRight=4;overflow=hidden;rotatable=0;points=[[0,0.5],[1,0.5]];portConstraint=eastwest;whiteSpace=wrap;html=1;fontFamily=Helvetica;fontSize=12;fontColor=default;" parent="81L4wlxiSWu801nx8BuZ-50" vertex="1">
          <mxGeometry y="26" width="360" height="26" as="geometry" />
        </mxCell>
        <mxCell id="81L4wlxiSWu801nx8BuZ-52" value="" style="line;strokeWidth=1;fillColor=none;align=left;verticalAlign=middle;spacingTop=-1;spacingLeft=3;spacingRight=3;rotatable=0;labelPosition=right;points=[];portConstraint=eastwest;strokeColor=inherit;fontFamily=Helvetica;fontSize=12;fontColor=default;" parent="81L4wlxiSWu801nx8BuZ-50" vertex="1">
          <mxGeometry y="52" width="360" height="8" as="geometry" />
        </mxCell>
        <mxCell id="81L4wlxiSWu801nx8BuZ-55" value="+ add(E):boolean" style="text;strokeColor=none;fillColor=none;align=left;verticalAlign=top;spacingLeft=4;spacingRight=4;overflow=hidden;rotatable=0;points=[[0,0.5],[1,0.5]];portConstraint=eastwest;whiteSpace=wrap;html=1;fontFamily=Helvetica;fontSize=12;fontColor=default;" parent="81L4wlxiSWu801nx8BuZ-50" vertex="1">
          <mxGeometry y="60" width="360" height="26" as="geometry" />
        </mxCell>
        <mxCell id="81L4wlxiSWu801nx8BuZ-54" value="+ get(int):E" style="text;strokeColor=none;fillColor=none;align=left;verticalAlign=top;spacingLeft=4;spacingRight=4;overflow=hidden;rotatable=0;points=[[0,0.5],[1,0.5]];portConstraint=eastwest;whiteSpace=wrap;html=1;fontFamily=Helvetica;fontSize=12;fontColor=default;" parent="81L4wlxiSWu801nx8BuZ-50" vertex="1">
          <mxGeometry y="86" width="360" height="26" as="geometry" />
        </mxCell>
        <mxCell id="81L4wlxiSWu801nx8BuZ-56" value="+ add(int,E):void" style="text;strokeColor=none;fillColor=none;align=left;verticalAlign=top;spacingLeft=4;spacingRight=4;overflow=hidden;rotatable=0;points=[[0,0.5],[1,0.5]];portConstraint=eastwest;whiteSpace=wrap;html=1;fontFamily=Helvetica;fontSize=12;fontColor=default;" parent="81L4wlxiSWu801nx8BuZ-50" vertex="1">
          <mxGeometry y="112" width="360" height="26" as="geometry" />
        </mxCell>
        <mxCell id="81L4wlxiSWu801nx8BuZ-60" value="+ remove(int):E" style="text;strokeColor=none;fillColor=none;align=left;verticalAlign=top;spacingLeft=4;spacingRight=4;overflow=hidden;rotatable=0;points=[[0,0.5],[1,0.5]];portConstraint=eastwest;whiteSpace=wrap;html=1;fontFamily=Helvetica;fontSize=12;fontColor=default;" parent="81L4wlxiSWu801nx8BuZ-50" vertex="1">
          <mxGeometry y="138" width="360" height="26" as="geometry" />
        </mxCell>
        <mxCell id="81L4wlxiSWu801nx8BuZ-59" value="+ indexOf(Object):int" style="text;strokeColor=none;fillColor=none;align=left;verticalAlign=top;spacingLeft=4;spacingRight=4;overflow=hidden;rotatable=0;points=[[0,0.5],[1,0.5]];portConstraint=eastwest;whiteSpace=wrap;html=1;fontFamily=Helvetica;fontSize=12;fontColor=default;" parent="81L4wlxiSWu801nx8BuZ-50" vertex="1">
          <mxGeometry y="164" width="360" height="26" as="geometry" />
        </mxCell>
        <mxCell id="81L4wlxiSWu801nx8BuZ-58" value="+ lastIndexOf(Object):int" style="text;strokeColor=none;fillColor=none;align=left;verticalAlign=top;spacingLeft=4;spacingRight=4;overflow=hidden;rotatable=0;points=[[0,0.5],[1,0.5]];portConstraint=eastwest;whiteSpace=wrap;html=1;fontFamily=Helvetica;fontSize=12;fontColor=default;" parent="81L4wlxiSWu801nx8BuZ-50" vertex="1">
          <mxGeometry y="190" width="360" height="26" as="geometry" />
        </mxCell>
        <mxCell id="81L4wlxiSWu801nx8BuZ-61" value="+ clear():void" style="text;strokeColor=none;fillColor=none;align=left;verticalAlign=top;spacingLeft=4;spacingRight=4;overflow=hidden;rotatable=0;points=[[0,0.5],[1,0.5]];portConstraint=eastwest;whiteSpace=wrap;html=1;fontFamily=Helvetica;fontSize=12;fontColor=default;" parent="81L4wlxiSWu801nx8BuZ-50" vertex="1">
          <mxGeometry y="216" width="360" height="26" as="geometry" />
        </mxCell>
        <mxCell id="81L4wlxiSWu801nx8BuZ-62" value="+ allAll(int,Collection&amp;lt;?&amp;gt;):boolean" style="text;strokeColor=none;fillColor=none;align=left;verticalAlign=top;spacingLeft=4;spacingRight=4;overflow=hidden;rotatable=0;points=[[0,0.5],[1,0.5]];portConstraint=eastwest;whiteSpace=wrap;html=1;fontFamily=Helvetica;fontSize=12;fontColor=default;" parent="81L4wlxiSWu801nx8BuZ-50" vertex="1">
          <mxGeometry y="242" width="360" height="26" as="geometry" />
        </mxCell>
        <mxCell id="81L4wlxiSWu801nx8BuZ-63" value="+ iterator():Iterator&amp;lt;E&amp;gt;" style="text;strokeColor=none;fillColor=none;align=left;verticalAlign=top;spacingLeft=4;spacingRight=4;overflow=hidden;rotatable=0;points=[[0,0.5],[1,0.5]];portConstraint=eastwest;whiteSpace=wrap;html=1;fontFamily=Helvetica;fontSize=12;fontColor=default;" parent="81L4wlxiSWu801nx8BuZ-50" vertex="1">
          <mxGeometry y="268" width="360" height="26" as="geometry" />
        </mxCell>
        <mxCell id="81L4wlxiSWu801nx8BuZ-64" value="+ listIterator():ListIterator&amp;lt;E&amp;gt;" style="text;strokeColor=none;fillColor=none;align=left;verticalAlign=top;spacingLeft=4;spacingRight=4;overflow=hidden;rotatable=0;points=[[0,0.5],[1,0.5]];portConstraint=eastwest;whiteSpace=wrap;html=1;fontFamily=Helvetica;fontSize=12;fontColor=default;" parent="81L4wlxiSWu801nx8BuZ-50" vertex="1">
          <mxGeometry y="294" width="360" height="26" as="geometry" />
        </mxCell>
        <mxCell id="81L4wlxiSWu801nx8BuZ-65" value="+ listIterator(int):ListIterator&amp;lt;E&amp;gt;" style="text;strokeColor=none;fillColor=none;align=left;verticalAlign=top;spacingLeft=4;spacingRight=4;overflow=hidden;rotatable=0;points=[[0,0.5],[1,0.5]];portConstraint=eastwest;whiteSpace=wrap;html=1;fontFamily=Helvetica;fontSize=12;fontColor=default;" parent="81L4wlxiSWu801nx8BuZ-50" vertex="1">
          <mxGeometry y="320" width="360" height="26" as="geometry" />
        </mxCell>
        <mxCell id="81L4wlxiSWu801nx8BuZ-66" value="+ subList(int,int):List&amp;lt;E&amp;gt;" style="text;strokeColor=none;fillColor=none;align=left;verticalAlign=top;spacingLeft=4;spacingRight=4;overflow=hidden;rotatable=0;points=[[0,0.5],[1,0.5]];portConstraint=eastwest;whiteSpace=wrap;html=1;fontFamily=Helvetica;fontSize=12;fontColor=default;" parent="81L4wlxiSWu801nx8BuZ-50" vertex="1">
          <mxGeometry y="346" width="360" height="26" as="geometry" />
        </mxCell>
        <mxCell id="81L4wlxiSWu801nx8BuZ-68" value="+ equals(object):boolean" style="text;strokeColor=none;fillColor=none;align=left;verticalAlign=top;spacingLeft=4;spacingRight=4;overflow=hidden;rotatable=0;points=[[0,0.5],[1,0.5]];portConstraint=eastwest;whiteSpace=wrap;html=1;fontFamily=Helvetica;fontSize=12;fontColor=default;" parent="81L4wlxiSWu801nx8BuZ-50" vertex="1">
          <mxGeometry y="372" width="360" height="26" as="geometry" />
        </mxCell>
        <mxCell id="81L4wlxiSWu801nx8BuZ-69" value="+ hashCode():int" style="text;strokeColor=none;fillColor=none;align=left;verticalAlign=top;spacingLeft=4;spacingRight=4;overflow=hidden;rotatable=0;points=[[0,0.5],[1,0.5]];portConstraint=eastwest;whiteSpace=wrap;html=1;fontFamily=Helvetica;fontSize=12;fontColor=default;" parent="81L4wlxiSWu801nx8BuZ-50" vertex="1">
          <mxGeometry y="398" width="360" height="26" as="geometry" />
        </mxCell>
        <mxCell id="81L4wlxiSWu801nx8BuZ-53" value="# removeRange(fromIndex:int,toIndex:int):void" style="text;strokeColor=none;fillColor=none;align=left;verticalAlign=top;spacingLeft=4;spacingRight=4;overflow=hidden;rotatable=0;points=[[0,0.5],[1,0.5]];portConstraint=eastwest;whiteSpace=wrap;html=1;fontFamily=Helvetica;fontSize=12;fontColor=default;" parent="81L4wlxiSWu801nx8BuZ-50" vertex="1">
          <mxGeometry y="424" width="360" height="26" as="geometry" />
        </mxCell>
        <mxCell id="81L4wlxiSWu801nx8BuZ-92" value="" style="endArrow=block;dashed=1;endFill=0;endSize=12;html=1;rounded=0;fontFamily=Helvetica;fontSize=12;fontColor=default;exitX=0.5;exitY=0;exitDx=0;exitDy=0;" parent="1" source="81L4wlxiSWu801nx8BuZ-18" target="81L4wlxiSWu801nx8BuZ-50" edge="1">
          <mxGeometry width="160" relative="1" as="geometry">
            <mxPoint y="1230" as="sourcePoint" />
            <mxPoint x="160" y="1230" as="targetPoint" />
          </mxGeometry>
        </mxCell>
        <mxCell id="81L4wlxiSWu801nx8BuZ-96" value="&lt;div style=&quot;&quot;&gt;&lt;span style=&quot;background-color: initial;&quot;&gt;使用：ArraysSupport.newLength(oldCapacity,minCapacity - oldCapacity, oldCapacity &amp;gt;&amp;gt; 1)实现对elemenData&lt;/span&gt;&lt;/div&gt;&lt;div style=&quot;&quot;&gt;的扩容&lt;/div&gt;" style="shape=note;whiteSpace=wrap;html=1;backgroundOutline=1;darkOpacity=0.05;strokeColor=default;align=left;verticalAlign=middle;fontFamily=Helvetica;fontSize=12;fontColor=default;fillColor=default;" parent="1" vertex="1">
          <mxGeometry x="-1710" y="1747" width="280" height="92" as="geometry" />
        </mxCell>
        <mxCell id="81L4wlxiSWu801nx8BuZ-102" value="" style="endArrow=none;dashed=1;html=1;rounded=0;fontFamily=Helvetica;fontSize=12;fontColor=default;" parent="1" source="81L4wlxiSWu801nx8BuZ-96" target="81L4wlxiSWu801nx8BuZ-94" edge="1">
          <mxGeometry width="50" height="50" relative="1" as="geometry">
            <mxPoint x="-200" y="1560" as="sourcePoint" />
            <mxPoint x="-380" y="1649" as="targetPoint" />
          </mxGeometry>
        </mxCell>
        <mxCell id="81L4wlxiSWu801nx8BuZ-118" value="" style="endArrow=block;dashed=1;endFill=0;endSize=12;html=1;rounded=0;fontFamily=Helvetica;fontSize=12;fontColor=default;exitX=0.5;exitY=0;exitDx=0;exitDy=0;" parent="1" source="81L4wlxiSWu801nx8BuZ-18" target="81L4wlxiSWu801nx8BuZ-9" edge="1">
          <mxGeometry width="160" relative="1" as="geometry">
            <mxPoint x="310" y="1470" as="sourcePoint" />
            <mxPoint x="470" y="1470" as="targetPoint" />
          </mxGeometry>
        </mxCell>
        <mxCell id="81L4wlxiSWu801nx8BuZ-129" value="&lt;p style=&quot;margin:0px;margin-top:4px;text-align:center;&quot;&gt;&lt;i&gt;&amp;lt;&amp;lt;Interface&amp;gt;&amp;gt;&lt;/i&gt;&lt;br&gt;&lt;b&gt;Queue&amp;lt;E&amp;gt;&lt;/b&gt;&lt;/p&gt;&lt;hr size=&quot;1&quot; style=&quot;border-style:solid;&quot;&gt;&lt;p style=&quot;margin:0px;margin-left:4px;&quot;&gt;&lt;span style=&quot;background-color: initial;&quot;&gt;+ add(E):void&amp;nbsp; //元素插入队列&amp;nbsp; &amp;nbsp;，如有容器限制，超量抛异常&lt;/span&gt;&lt;/p&gt;&lt;p style=&quot;margin:0px;margin-left:4px;&quot;&gt;+ offer(E):boolean //元素插入队列，如超量，返回false&lt;/p&gt;&lt;p style=&quot;margin:0px;margin-left:4px;&quot;&gt;+ remove():E //移除队列头并返回&amp;nbsp; 为空时抛异常&lt;/p&gt;&lt;p style=&quot;margin:0px;margin-left:4px;&quot;&gt;+ poll():E&amp;nbsp;&amp;nbsp;&lt;span style=&quot;background-color: initial;&quot;&gt;//移除队列头并返回， null表示空&lt;/span&gt;&lt;/p&gt;&lt;p style=&quot;margin:0px;margin-left:4px;&quot;&gt;+ element():E //返回队列头元素，不移除，队列为空，抛出异常&lt;/p&gt;&lt;p style=&quot;margin:0px;margin-left:4px;&quot;&gt;+ peek():E&amp;nbsp; &amp;nbsp; //返回队列头元素，不移除，队列为空，返回null&lt;/p&gt;&lt;p style=&quot;margin:0px;margin-left:4px;&quot;&gt;&lt;br&gt;&lt;/p&gt;&lt;p style=&quot;margin:0px;margin-left:4px;&quot;&gt;&lt;br&gt;&lt;/p&gt;" style="verticalAlign=top;align=left;overflow=fill;html=1;whiteSpace=wrap;strokeColor=default;fontFamily=Helvetica;fontSize=12;fontColor=default;fillColor=default;" parent="1" vertex="1">
          <mxGeometry x="223" y="190" width="380" height="140" as="geometry" />
        </mxCell>
        <mxCell id="81L4wlxiSWu801nx8BuZ-130" value="&lt;p style=&quot;margin:0px;margin-top:4px;text-align:center;&quot;&gt;&lt;i&gt;&amp;lt;&amp;lt;Interface&amp;gt;&amp;gt;&lt;/i&gt;&lt;br&gt;&lt;b&gt;Deque //双向队列&lt;/b&gt;&lt;/p&gt;&lt;p style=&quot;margin:0px;margin-left:4px;&quot;&gt;&lt;br&gt;&lt;/p&gt;&lt;hr size=&quot;1&quot; style=&quot;border-style:solid;&quot;&gt;&lt;p style=&quot;margin:0px;margin-left:4px;&quot;&gt;+ addFirst(E):void&lt;br&gt;&lt;/p&gt;&lt;p style=&quot;margin:0px;margin-left:4px;&quot;&gt;+ addLast(E):void&lt;/p&gt;&lt;p style=&quot;margin:0px;margin-left:4px;&quot;&gt;+ offerFirst(E):boolean&lt;/p&gt;&lt;p style=&quot;margin:0px;margin-left:4px;&quot;&gt;+ offerLast(E):boolean&lt;/p&gt;&lt;p style=&quot;margin:0px;margin-left:4px;&quot;&gt;+ removeFirst():E&lt;/p&gt;&lt;p style=&quot;margin:0px;margin-left:4px;&quot;&gt;+ removeLast():E&lt;/p&gt;&lt;p style=&quot;margin:0px;margin-left:4px;&quot;&gt;+ pollFirst():E&lt;/p&gt;&lt;p style=&quot;margin:0px;margin-left:4px;&quot;&gt;+ pollLast():E&lt;/p&gt;&lt;p style=&quot;margin:0px;margin-left:4px;&quot;&gt;+ getFirst():E&lt;/p&gt;&lt;p style=&quot;margin:0px;margin-left:4px;&quot;&gt;+ getLast():E&lt;/p&gt;&lt;p style=&quot;margin:0px;margin-left:4px;&quot;&gt;+ peekFirst():E&lt;/p&gt;&lt;p style=&quot;margin:0px;margin-left:4px;&quot;&gt;+ peekLast():E&lt;/p&gt;&lt;p style=&quot;margin:0px;margin-left:4px;&quot;&gt;+ removeFirstOccurrence(Object):boolean&lt;/p&gt;&lt;p style=&quot;margin:0px;margin-left:4px;&quot;&gt;+ removeLastOccurrence(Object):boolean&lt;/p&gt;&lt;p style=&quot;margin:0px;margin-left:4px;&quot;&gt;+ add(E):boolean&lt;/p&gt;&lt;p style=&quot;margin:0px;margin-left:4px;&quot;&gt;+ offer(E):boolean&lt;/p&gt;&lt;p style=&quot;margin:0px;margin-left:4px;&quot;&gt;+ remove():E&lt;/p&gt;&lt;p style=&quot;margin:0px;margin-left:4px;&quot;&gt;+ element():E&lt;/p&gt;&lt;p style=&quot;margin:0px;margin-left:4px;&quot;&gt;+ peek():E&lt;/p&gt;&lt;p style=&quot;margin:0px;margin-left:4px;&quot;&gt;+ addAll(Collection&amp;lt;?&amp;gt;):boolean&lt;/p&gt;&lt;p style=&quot;margin:0px;margin-left:4px;&quot;&gt;+ push(E):void&lt;/p&gt;&lt;p style=&quot;margin:0px;margin-left:4px;&quot;&gt;+ pop():E&lt;/p&gt;&lt;p style=&quot;margin:0px;margin-left:4px;&quot;&gt;+ remove(Object):boolean&lt;/p&gt;&lt;p style=&quot;margin:0px;margin-left:4px;&quot;&gt;+ contains(Object):boolean&lt;/p&gt;&lt;p style=&quot;margin:0px;margin-left:4px;&quot;&gt;+ size():int&lt;/p&gt;&lt;p style=&quot;margin:0px;margin-left:4px;&quot;&gt;+ iterator():Iterator&amp;lt;E&amp;gt;&lt;/p&gt;&lt;p style=&quot;margin:0px;margin-left:4px;&quot;&gt;+ descendingIterator():Iterator&amp;lt;E&amp;gt;&lt;/p&gt;&lt;p style=&quot;margin:0px;margin-left:4px;&quot;&gt;+ reversed():Deque&amp;lt;E&amp;gt;&lt;/p&gt;&lt;p style=&quot;margin:0px;margin-left:4px;&quot;&gt;&lt;br&gt;&lt;/p&gt;" style="verticalAlign=top;align=left;overflow=fill;html=1;whiteSpace=wrap;strokeColor=default;fontFamily=Helvetica;fontSize=12;fontColor=default;fillColor=default;" parent="1" vertex="1">
          <mxGeometry x="35" y="420" width="270" height="480" as="geometry" />
        </mxCell>
        <mxCell id="81L4wlxiSWu801nx8BuZ-131" value="" style="endArrow=block;dashed=1;endFill=0;endSize=12;html=1;rounded=0;fontFamily=Helvetica;fontSize=12;fontColor=default;" parent="1" source="81L4wlxiSWu801nx8BuZ-129" edge="1">
          <mxGeometry width="160" relative="1" as="geometry">
            <mxPoint x="610" y="330" as="sourcePoint" />
            <mxPoint x="-350" y="-80" as="targetPoint" />
            <Array as="points">
              <mxPoint x="-350" y="-80" />
            </Array>
          </mxGeometry>
        </mxCell>
        <mxCell id="81L4wlxiSWu801nx8BuZ-132" value="" style="endArrow=block;dashed=1;endFill=0;endSize=12;html=1;rounded=0;fontFamily=Helvetica;fontSize=12;fontColor=default;exitX=0.636;exitY=0.012;exitDx=0;exitDy=0;exitPerimeter=0;" parent="1" source="81L4wlxiSWu801nx8BuZ-130" target="81L4wlxiSWu801nx8BuZ-129" edge="1">
          <mxGeometry width="160" relative="1" as="geometry">
            <mxPoint x="550" y="810" as="sourcePoint" />
            <mxPoint x="710" y="810" as="targetPoint" />
          </mxGeometry>
        </mxCell>
        <mxCell id="81L4wlxiSWu801nx8BuZ-133" value="&lt;p style=&quot;margin:0px;margin-top:4px;text-align:center;&quot;&gt;&lt;b&gt;&lt;i&gt;&amp;lt;&amp;lt;abstract&amp;gt;&amp;gt;AbstractSequentialList&amp;lt;E&amp;gt;&lt;/i&gt;&lt;/b&gt;&lt;/p&gt;&lt;hr size=&quot;1&quot; style=&quot;border-style:solid;&quot;&gt;&lt;p style=&quot;margin:0px;margin-left:4px;&quot;&gt;+ field: Type&lt;/p&gt;&lt;hr size=&quot;1&quot; style=&quot;border-style:solid;&quot;&gt;&lt;p style=&quot;margin:0px;margin-left:4px;&quot;&gt;+ get(int):E&lt;/p&gt;&lt;p style=&quot;margin:0px;margin-left:4px;&quot;&gt;+ set(int,E):E&lt;/p&gt;&lt;p style=&quot;margin:0px;margin-left:4px;&quot;&gt;+ add(int,E):void&lt;/p&gt;&lt;p style=&quot;margin:0px;margin-left:4px;&quot;&gt;+ remove(int):E&lt;/p&gt;&lt;p style=&quot;margin:0px;margin-left:4px;&quot;&gt;+ addAll(int, Collection&amp;lt;?&amp;gt;):boolean&lt;/p&gt;&lt;p style=&quot;margin:0px;margin-left:4px;&quot;&gt;+ iterator():Iterator&amp;lt;E&amp;gt;&lt;/p&gt;&lt;p style=&quot;margin:0px;margin-left:4px;&quot;&gt;+ iterator():ListIterator&amp;lt;E&amp;gt;&lt;/p&gt;" style="verticalAlign=top;align=left;overflow=fill;html=1;whiteSpace=wrap;strokeColor=default;fontFamily=Helvetica;fontSize=12;fontColor=default;fillColor=default;" parent="1" vertex="1">
          <mxGeometry x="-390" y="1460" width="370" height="220" as="geometry" />
        </mxCell>
        <mxCell id="81L4wlxiSWu801nx8BuZ-136" value="" style="endArrow=block;dashed=1;endFill=0;endSize=12;html=1;rounded=0;fontFamily=Helvetica;fontSize=12;fontColor=default;exitX=0.467;exitY=0.018;exitDx=0;exitDy=0;exitPerimeter=0;entryX=0.592;entryY=1.075;entryDx=0;entryDy=0;entryPerimeter=0;" parent="1" source="81L4wlxiSWu801nx8BuZ-133" target="81L4wlxiSWu801nx8BuZ-53" edge="1">
          <mxGeometry width="160" relative="1" as="geometry">
            <mxPoint x="120" y="1160" as="sourcePoint" />
            <mxPoint x="-145" y="1120" as="targetPoint" />
          </mxGeometry>
        </mxCell>
        <mxCell id="81L4wlxiSWu801nx8BuZ-138" value="" style="endArrow=block;dashed=1;endFill=0;endSize=12;html=1;rounded=0;fontFamily=Helvetica;fontSize=12;fontColor=default;exitX=0.451;exitY=0.021;exitDx=0;exitDy=0;exitPerimeter=0;" parent="1" source="81L4wlxiSWu801nx8BuZ-146" target="81L4wlxiSWu801nx8BuZ-133" edge="1">
          <mxGeometry width="160" relative="1" as="geometry">
            <mxPoint x="-350" y="1860" as="sourcePoint" />
            <mxPoint x="340" y="1630" as="targetPoint" />
          </mxGeometry>
        </mxCell>
        <mxCell id="81L4wlxiSWu801nx8BuZ-140" value="" style="endArrow=block;dashed=1;endFill=0;endSize=12;html=1;rounded=0;fontFamily=Helvetica;fontSize=12;fontColor=default;exitX=0.515;exitY=0.04;exitDx=0;exitDy=0;exitPerimeter=0;" parent="1" source="81L4wlxiSWu801nx8BuZ-146" target="81L4wlxiSWu801nx8BuZ-9" edge="1">
          <mxGeometry width="160" relative="1" as="geometry">
            <mxPoint x="-356" y="1888" as="sourcePoint" />
            <mxPoint x="310" y="1610" as="targetPoint" />
          </mxGeometry>
        </mxCell>
        <mxCell id="81L4wlxiSWu801nx8BuZ-141" value="" style="endArrow=block;dashed=1;endFill=0;endSize=12;html=1;rounded=0;fontFamily=Helvetica;fontSize=12;fontColor=default;exitX=0.568;exitY=-0.015;exitDx=0;exitDy=0;entryX=0.561;entryY=0.986;entryDx=0;entryDy=0;entryPerimeter=0;exitPerimeter=0;" parent="1" source="81L4wlxiSWu801nx8BuZ-146" target="81L4wlxiSWu801nx8BuZ-130" edge="1">
          <mxGeometry width="160" relative="1" as="geometry">
            <mxPoint x="-350" y="1860" as="sourcePoint" />
            <mxPoint x="310" y="1610" as="targetPoint" />
          </mxGeometry>
        </mxCell>
        <mxCell id="81L4wlxiSWu801nx8BuZ-146" value="&lt;p style=&quot;margin:0px;margin-top:4px;text-align:center;&quot;&gt;&lt;b&gt;LinkedList&lt;/b&gt;&lt;/p&gt;&lt;hr size=&quot;1&quot; style=&quot;border-style:solid;&quot;&gt;&lt;p style=&quot;margin:0px;margin-left:4px;&quot;&gt;- size:int&lt;/p&gt;&lt;p style=&quot;margin:0px;margin-left:4px;&quot;&gt;- first:Node(E)&lt;/p&gt;&lt;p style=&quot;margin:0px;margin-left:4px;&quot;&gt;- last:Node(E)&lt;/p&gt;&lt;hr size=&quot;1&quot; style=&quot;border-style:solid;&quot;&gt;&lt;p style=&quot;margin:0px;margin-left:4px;&quot;&gt;- linkFirst(E):void&lt;/p&gt;&lt;p style=&quot;margin:0px;margin-left:4px;&quot;&gt;- linkLast(E):void&lt;/p&gt;&lt;p style=&quot;margin:0px;margin-left:4px;&quot;&gt;- linkBefore(E ,Node&amp;lt;E&amp;gt;):void&lt;/p&gt;&lt;p style=&quot;margin:0px;margin-left:4px;&quot;&gt;- unLinkFirst(Node&amp;lt;E&amp;gt;):E&lt;/p&gt;&lt;p style=&quot;margin:0px;margin-left:4px;&quot;&gt;- unLInkLast(Node&amp;lt;E&amp;gt;):E&lt;/p&gt;&lt;p style=&quot;margin:0px;margin-left:4px;&quot;&gt;- unLink(Node&amp;lt;E&amp;gt;):E&lt;/p&gt;&lt;p style=&quot;margin:0px;margin-left:4px;&quot;&gt;+ getFirst():E&lt;/p&gt;&lt;p style=&quot;margin:0px;margin-left:4px;&quot;&gt;+ getLast():E&lt;/p&gt;&lt;p style=&quot;margin:0px;margin-left:4px;&quot;&gt;+ removeFirst():E&lt;/p&gt;&lt;p style=&quot;margin:0px;margin-left:4px;&quot;&gt;+ removeLast():E&lt;/p&gt;&lt;p style=&quot;margin:0px;margin-left:4px;&quot;&gt;+ addFirst(E):void&lt;/p&gt;&lt;p style=&quot;margin:0px;margin-left:4px;&quot;&gt;+ addLast(E):void&lt;/p&gt;&lt;p style=&quot;margin:0px;margin-left:4px;&quot;&gt;+ contains(E):boolean&lt;/p&gt;&lt;p style=&quot;margin:0px;margin-left:4px;&quot;&gt;+ int size():int&lt;/p&gt;&lt;p style=&quot;margin:0px;margin-left:4px;&quot;&gt;+ add(E):boolean&lt;/p&gt;&lt;p style=&quot;margin:0px;margin-left:4px;&quot;&gt;+ remove(Object):boolean&lt;/p&gt;&lt;p style=&quot;margin:0px;margin-left:4px;&quot;&gt;+ addAll(Collenction&amp;lt;?&amp;gt;):boolean&lt;/p&gt;&lt;p style=&quot;margin:0px;margin-left:4px;&quot;&gt;+ addAll(int , Collenction&amp;lt;?&amp;gt;):boolean&lt;/p&gt;&lt;p style=&quot;margin:0px;margin-left:4px;&quot;&gt;+ clear():void&lt;/p&gt;&lt;p style=&quot;margin:0px;margin-left:4px;&quot;&gt;+ get(int):E&lt;/p&gt;&lt;p style=&quot;margin:0px;margin-left:4px;&quot;&gt;+ set(int,E):E&lt;/p&gt;&lt;p style=&quot;margin:0px;margin-left:4px;&quot;&gt;+ add(int,E):void&lt;/p&gt;&lt;p style=&quot;margin:0px;margin-left:4px;&quot;&gt;+ remove(int):E&lt;/p&gt;&lt;p style=&quot;margin:0px;margin-left:4px;&quot;&gt;- node(index:int):Node&amp;lt;e&amp;gt; //返回index的Node&lt;/p&gt;&lt;p style=&quot;margin:0px;margin-left:4px;&quot;&gt;+ indexOf(Object):int // 返回object的index&lt;/p&gt;&lt;p style=&quot;margin:0px;margin-left:4px;&quot;&gt;+ lastIndexOf(Object):int //从last往first查找&lt;/p&gt;&lt;p style=&quot;margin:0px;margin-left:4px;&quot;&gt;+ peek():E //返回first&lt;/p&gt;&lt;p style=&quot;margin:0px;margin-left:4px;&quot;&gt;+ element():E //返回first&lt;/p&gt;&lt;p style=&quot;margin:0px;margin-left:4px;&quot;&gt;+ poll():E //返回第一个并执行unlinkFirst()&lt;/p&gt;&lt;p style=&quot;margin:0px;margin-left:4px;&quot;&gt;+ remove():E //执行removeFirst()&lt;/p&gt;&lt;p style=&quot;margin:0px;margin-left:4px;&quot;&gt;+ offer(E):E //执行add(e)&lt;/p&gt;&lt;p style=&quot;margin:0px;margin-left:4px;&quot;&gt;+ offerFirst(E):boolean //执行addFirst(e)&lt;/p&gt;&lt;p style=&quot;margin:0px;margin-left:4px;&quot;&gt;+ offerLast(E):boolean //执行addLast(e)&lt;/p&gt;&lt;p style=&quot;margin:0px;margin-left:4px;&quot;&gt;+ push(E):void //执行addFirst()&lt;/p&gt;&lt;p style=&quot;margin:0px;margin-left:4px;&quot;&gt;+ pop():E //执行removeFirst()&lt;/p&gt;&lt;p style=&quot;margin:0px;margin-left:4px;&quot;&gt;&lt;br&gt;&lt;/p&gt;" style="verticalAlign=top;align=left;overflow=fill;html=1;whiteSpace=wrap;strokeColor=default;fontFamily=Helvetica;fontSize=12;fontColor=default;fillColor=default;" parent="1" vertex="1">
          <mxGeometry x="35" y="1790" width="285" height="611" as="geometry" />
        </mxCell>
        <mxCell id="81L4wlxiSWu801nx8BuZ-147" value="&lt;p style=&quot;margin:0px;margin-top:4px;text-align:center;&quot;&gt;&lt;b&gt;Vector&amp;lt;E&amp;gt;&lt;/b&gt;&lt;/p&gt;&lt;hr size=&quot;1&quot; style=&quot;border-style:solid;&quot;&gt;&lt;p style=&quot;margin:0px;margin-left:4px;&quot;&gt;/*&lt;/p&gt;&lt;p style=&quot;margin:0px;margin-left:4px;&quot;&gt;与ArrayList都是可变组数&lt;/p&gt;&lt;p style=&quot;margin:0px;margin-left:4px;&quot;&gt;Vector:所有方法被synchrnized修饰，线程安全&lt;/p&gt;&lt;p style=&quot;margin:0px;margin-left:4px;&quot;&gt;，效率低 ，两倍增长 size &amp;gt;&amp;gt; 0&lt;/p&gt;&lt;p style=&quot;margin:0px;margin-left:4px;&quot;&gt;ArrayList线程不安全，效率高，1.5倍增长 size &amp;gt;&amp;gt; 1&lt;/p&gt;&lt;p style=&quot;margin:0px;margin-left:4px;&quot;&gt;&lt;br&gt;&lt;/p&gt;&lt;p style=&quot;margin:0px;margin-left:4px;&quot;&gt;&lt;br&gt;&lt;/p&gt;&lt;p style=&quot;margin:0px;margin-left:4px;&quot;&gt;*/&lt;/p&gt;" style="verticalAlign=top;align=left;overflow=fill;html=1;whiteSpace=wrap;strokeColor=default;fontFamily=Helvetica;fontSize=12;fontColor=default;fillColor=default;" parent="1" vertex="1">
          <mxGeometry x="-800" y="1470" width="250" height="260" as="geometry" />
        </mxCell>
        <mxCell id="81L4wlxiSWu801nx8BuZ-148" value="Node&amp;lt;E&amp;gt;类结构&lt;div&gt;E item;&lt;/div&gt;&lt;div&gt;Node&amp;lt;E&amp;gt;&amp;nbsp; next;&lt;/div&gt;&lt;div&gt;Node&amp;lt;E&amp;gt; prev;&lt;/div&gt;&lt;div&gt;构造函数(prev , e , next)&lt;/div&gt;" style="shape=note;whiteSpace=wrap;html=1;backgroundOutline=1;darkOpacity=0.05;strokeColor=default;align=left;verticalAlign=middle;fontFamily=Helvetica;fontSize=12;fontColor=default;fillColor=default;" parent="1" vertex="1">
          <mxGeometry x="-270" y="2045.5" width="230" height="100" as="geometry" />
        </mxCell>
        <mxCell id="81L4wlxiSWu801nx8BuZ-149" value="" style="endArrow=none;dashed=1;html=1;dashPattern=1 3;strokeWidth=2;rounded=0;fontFamily=Helvetica;fontSize=12;fontColor=default;entryX=0.003;entryY=0.423;entryDx=0;entryDy=0;entryPerimeter=0;" parent="1" source="81L4wlxiSWu801nx8BuZ-146" target="81L4wlxiSWu801nx8BuZ-148" edge="1">
          <mxGeometry width="50" height="50" relative="1" as="geometry">
            <mxPoint x="450" y="1920" as="sourcePoint" />
            <mxPoint x="500" y="1870" as="targetPoint" />
          </mxGeometry>
        </mxCell>
        <mxCell id="81L4wlxiSWu801nx8BuZ-150" value="" style="endArrow=block;dashed=1;endFill=0;endSize=12;html=1;rounded=0;fontFamily=Helvetica;fontSize=12;fontColor=default;exitX=0.46;exitY=-0.004;exitDx=0;exitDy=0;exitPerimeter=0;" parent="1" source="81L4wlxiSWu801nx8BuZ-147" target="81L4wlxiSWu801nx8BuZ-53" edge="1">
          <mxGeometry width="160" relative="1" as="geometry">
            <mxPoint x="-730" y="1380" as="sourcePoint" />
            <mxPoint x="-570" y="1380" as="targetPoint" />
          </mxGeometry>
        </mxCell>
        <mxCell id="81L4wlxiSWu801nx8BuZ-151" value="" style="endArrow=block;dashed=1;endFill=0;endSize=12;html=1;rounded=0;fontFamily=Helvetica;fontSize=12;fontColor=default;exitX=0.443;exitY=0.016;exitDx=0;exitDy=0;exitPerimeter=0;entryX=0.342;entryY=0.992;entryDx=0;entryDy=0;entryPerimeter=0;" parent="1" source="81L4wlxiSWu801nx8BuZ-147" target="81L4wlxiSWu801nx8BuZ-9" edge="1">
          <mxGeometry width="160" relative="1" as="geometry">
            <mxPoint x="-730" y="1380" as="sourcePoint" />
            <mxPoint x="-570" y="1380" as="targetPoint" />
          </mxGeometry>
        </mxCell>
        <mxCell id="81L4wlxiSWu801nx8BuZ-152" value="&lt;p style=&quot;margin:0px;margin-top:4px;text-align:center;&quot;&gt;&lt;b&gt;Statck&amp;lt;E&amp;gt;&lt;/b&gt;&lt;/p&gt;&lt;hr size=&quot;1&quot; style=&quot;border-style:solid;&quot;&gt;/*后进先出,方法被synchronized修饰*/&lt;div&gt;+ push(E):E // 数组尾添加&lt;/div&gt;&lt;div&gt;+ pop():E&amp;nbsp; &amp;nbsp; &amp;nbsp;//返回数组最后一个，并删除&lt;/div&gt;&lt;div&gt;+ peek():E&amp;nbsp; //返回数组最后一个&lt;/div&gt;&lt;div&gt;&lt;br&gt;&lt;div&gt;&lt;br&gt;&lt;/div&gt;&lt;div&gt;&lt;br&gt;&lt;div style=&quot;height:2px;&quot;&gt;&lt;/div&gt;&lt;/div&gt;&lt;/div&gt;" style="verticalAlign=top;align=left;overflow=fill;html=1;whiteSpace=wrap;strokeColor=default;fontFamily=Helvetica;fontSize=12;fontColor=default;fillColor=default;" parent="1" vertex="1">
          <mxGeometry x="-800" y="1830" width="235" height="170" as="geometry" />
        </mxCell>
        <mxCell id="81L4wlxiSWu801nx8BuZ-154" value="" style="endArrow=block;dashed=1;endFill=0;endSize=12;html=1;rounded=0;fontFamily=Helvetica;fontSize=12;fontColor=default;exitX=0.585;exitY=0.02;exitDx=0;exitDy=0;exitPerimeter=0;entryX=0.559;entryY=1.005;entryDx=0;entryDy=0;entryPerimeter=0;" parent="1" source="81L4wlxiSWu801nx8BuZ-152" target="81L4wlxiSWu801nx8BuZ-147" edge="1">
          <mxGeometry width="160" relative="1" as="geometry">
            <mxPoint x="-630" y="1780" as="sourcePoint" />
            <mxPoint x="-540" y="1850" as="targetPoint" />
          </mxGeometry>
        </mxCell>
        <mxCell id="81L4wlxiSWu801nx8BuZ-155" value="&lt;p style=&quot;margin:0px;margin-top:4px;text-align:center;&quot;&gt;&lt;i&gt;&amp;lt;&amp;lt;Interface&amp;gt;&amp;gt;&lt;/i&gt;&lt;br&gt;&lt;b&gt;BlockingQueue&lt;/b&gt;&lt;/p&gt;&lt;hr size=&quot;1&quot; style=&quot;border-style:solid;&quot;&gt;&lt;p style=&quot;margin:0px;margin-left:4px;&quot;&gt;/*阻塞队列接口 */&lt;/p&gt;" style="verticalAlign=top;align=left;overflow=fill;html=1;whiteSpace=wrap;strokeColor=default;fontFamily=Helvetica;fontSize=12;fontColor=default;fillColor=default;" parent="1" vertex="1">
          <mxGeometry x="1030" y="430" width="190" height="80" as="geometry" />
        </mxCell>
        <mxCell id="81L4wlxiSWu801nx8BuZ-156" value="" style="endArrow=block;dashed=1;endFill=0;endSize=12;html=1;rounded=0;fontFamily=Helvetica;fontSize=12;fontColor=default;exitX=0.432;exitY=0.038;exitDx=0;exitDy=0;exitPerimeter=0;entryX=0.75;entryY=1;entryDx=0;entryDy=0;" parent="1" source="81L4wlxiSWu801nx8BuZ-155" target="81L4wlxiSWu801nx8BuZ-129" edge="1">
          <mxGeometry width="160" relative="1" as="geometry">
            <mxPoint x="800" y="290" as="sourcePoint" />
            <mxPoint x="960" y="290" as="targetPoint" />
          </mxGeometry>
        </mxCell>
        <mxCell id="81L4wlxiSWu801nx8BuZ-158" value="&lt;p style=&quot;margin:0px;margin-top:4px;text-align:center;&quot;&gt;&lt;b&gt;&amp;lt;&amp;lt;Abstract&amp;gt;&amp;gt;AbstractQueue&lt;/b&gt;&lt;/p&gt;&lt;hr size=&quot;1&quot; style=&quot;border-style:solid;&quot;&gt;&lt;div style=&quot;height:2px;&quot;&gt;&lt;/div&gt;" style="verticalAlign=top;align=left;overflow=fill;html=1;whiteSpace=wrap;strokeColor=default;fontFamily=Helvetica;fontSize=12;fontColor=default;fillColor=default;" parent="1" vertex="1">
          <mxGeometry x="470" y="430" width="204" height="60" as="geometry" />
        </mxCell>
        <mxCell id="81L4wlxiSWu801nx8BuZ-159" value="" style="endArrow=block;dashed=1;endFill=0;endSize=12;html=1;rounded=0;fontFamily=Helvetica;fontSize=12;fontColor=default;exitX=0.51;exitY=-0.029;exitDx=0;exitDy=0;exitPerimeter=0;entryX=1;entryY=0.75;entryDx=0;entryDy=0;" parent="1" source="81L4wlxiSWu801nx8BuZ-158" target="81L4wlxiSWu801nx8BuZ-11" edge="1">
          <mxGeometry width="160" relative="1" as="geometry">
            <mxPoint x="500" y="400" as="sourcePoint" />
            <mxPoint x="110" y="280" as="targetPoint" />
            <Array as="points">
              <mxPoint x="482" y="370" />
            </Array>
          </mxGeometry>
        </mxCell>
        <mxCell id="81L4wlxiSWu801nx8BuZ-160" value="" style="endArrow=block;dashed=1;endFill=0;endSize=12;html=1;rounded=0;fontFamily=Helvetica;fontSize=12;fontColor=default;exitX=0.489;exitY=0.008;exitDx=0;exitDy=0;exitPerimeter=0;entryX=0.596;entryY=0.994;entryDx=0;entryDy=0;entryPerimeter=0;" parent="1" source="81L4wlxiSWu801nx8BuZ-162" target="81L4wlxiSWu801nx8BuZ-158" edge="1">
          <mxGeometry width="160" relative="1" as="geometry">
            <mxPoint x="290" y="783" as="sourcePoint" />
            <mxPoint x="724" y="540" as="targetPoint" />
          </mxGeometry>
        </mxCell>
        <mxCell id="81L4wlxiSWu801nx8BuZ-161" value="" style="endArrow=block;dashed=1;endFill=0;endSize=12;html=1;rounded=0;fontFamily=Helvetica;fontSize=12;fontColor=default;exitX=0.565;exitY=0.038;exitDx=0;exitDy=0;exitPerimeter=0;entryX=0.347;entryY=0.983;entryDx=0;entryDy=0;entryPerimeter=0;" parent="1" source="81L4wlxiSWu801nx8BuZ-162" target="81L4wlxiSWu801nx8BuZ-155" edge="1">
          <mxGeometry width="160" relative="1" as="geometry">
            <mxPoint x="535.98" y="559.3400000000001" as="sourcePoint" />
            <mxPoint x="790" y="540" as="targetPoint" />
          </mxGeometry>
        </mxCell>
        <mxCell id="81L4wlxiSWu801nx8BuZ-162" value="&lt;p style=&quot;margin:0px;margin-top:4px;text-align:center;&quot;&gt;&lt;b&gt;ArrayBlockingQueue&lt;/b&gt;&lt;/p&gt;&lt;p style=&quot;margin: 4px 0px 0px;&quot;&gt;&lt;b&gt;有界，实例化对象时确定&lt;/b&gt;&lt;/p&gt;&lt;p style=&quot;margin: 4px 0px 0px;&quot;&gt;&lt;b&gt;线程安全&lt;/b&gt;&lt;/p&gt;&lt;p style=&quot;margin: 4px 0px 0px;&quot;&gt;&lt;b&gt;阻塞行为&lt;/b&gt;&lt;/p&gt;&lt;hr size=&quot;1&quot; style=&quot;border-style:solid;&quot;&gt;&lt;p style=&quot;margin:0px;margin-left:4px;&quot;&gt;- items:object[]&lt;/p&gt;&lt;p style=&quot;margin:0px;margin-left:4px;&quot;&gt;- takeIndex:int&lt;/p&gt;&lt;p style=&quot;margin:0px;margin-left:4px;&quot;&gt;- putIndex:int&lt;/p&gt;&lt;p style=&quot;margin:0px;margin-left:4px;&quot;&gt;- count:int&lt;/p&gt;&lt;p style=&quot;margin:0px;margin-left:4px;&quot;&gt;- lock:&lt;b&gt;ReentrantLock&lt;/b&gt;&lt;/p&gt;&lt;p style=&quot;margin:0px;margin-left:4px;&quot;&gt;- notEmpty:&lt;b&gt;Condition //take()时阻塞实现 noteEmpty.await()&lt;/b&gt;&lt;/p&gt;&lt;p style=&quot;margin:0px;margin-left:4px;&quot;&gt;- notFull:&lt;b&gt;Condition&amp;nbsp; &amp;nbsp;//put(e)时阻塞实现 notFull.await()&lt;/b&gt;&lt;/p&gt;&lt;hr size=&quot;1&quot; style=&quot;border-style:solid;&quot;&gt;&lt;p style=&quot;margin:0px;margin-left:4px;&quot;&gt;- enqueue(E):void //插入元素实现方法,以putIndex作为新元素index并notEmpty.signal()释放锁&lt;/p&gt;&lt;p style=&quot;margin:0px;margin-left:4px;&quot;&gt;-dequeue():E //提取元素，以takeIndex取,notFull.signal()释放锁&lt;/p&gt;&lt;p style=&quot;margin:0px;margin-left:4px;&quot;&gt;&lt;br&gt;&lt;/p&gt;&lt;p style=&quot;margin:0px;margin-left:4px;&quot;&gt;+ put(E):void //调用enqueue(E) 插入元素，队列满阻塞&lt;/p&gt;&lt;p style=&quot;margin:0px;margin-left:4px;&quot;&gt;+ take() :e&amp;nbsp; &amp;nbsp; //调用dequeue()出队列,队列空阻塞&lt;/p&gt;&lt;p style=&quot;margin:0px;margin-left:4px;&quot;&gt;+ offer(E): //调用enqueue()入队，不阻塞，失败返回false&lt;/p&gt;&lt;p style=&quot;margin:0px;margin-left:4px;&quot;&gt;+ offer(e:E , timeout:long ,unit:TimeUnit) :boolean //指定时间插入元素&lt;/p&gt;&lt;p style=&quot;margin:0px;margin-left:4px;&quot;&gt;+ poll():E //出队列，没有返回null，不阻塞&lt;/p&gt;&lt;p style=&quot;margin:0px;margin-left:4px;&quot;&gt;+ poll(timeout:long,unit:TimeUnit):e //指定时间内出队列&lt;/p&gt;&lt;p style=&quot;margin:0px;margin-left:4px;&quot;&gt;+ peek():E&amp;nbsp; //查看takeIndex元素，没有返回null&lt;/p&gt;" style="verticalAlign=top;align=left;overflow=fill;html=1;whiteSpace=wrap;strokeColor=default;fontFamily=Helvetica;fontSize=12;fontColor=default;fillColor=default;" parent="1" vertex="1">
          <mxGeometry x="800" y="630" width="390" height="370" as="geometry" />
        </mxCell>
        <mxCell id="81L4wlxiSWu801nx8BuZ-165" value="&lt;p style=&quot;margin:0px;margin-top:4px;text-align:center;&quot;&gt;&lt;b&gt;LinkedBlockingQueue&lt;/b&gt;&lt;/p&gt;&lt;p style=&quot;margin: 4px 0px 0px;&quot;&gt;&lt;b&gt;有界，默认Integer.MAX_VALUE&lt;/b&gt;&lt;/p&gt;&lt;p style=&quot;margin: 4px 0px 0px;&quot;&gt;&lt;b&gt;线程安全&amp;nbsp;&lt;/b&gt;&lt;/p&gt;&lt;p style=&quot;margin: 4px 0px 0px;&quot;&gt;&lt;b&gt;阻塞行为&lt;/b&gt;&lt;/p&gt;&lt;hr size=&quot;1&quot; style=&quot;border-style:solid;&quot;&gt;&lt;p style=&quot;margin:0px;margin-left:4px;&quot;&gt;- first:Node&amp;lt;E&amp;gt;&lt;/p&gt;&lt;p style=&quot;margin:0px;margin-left:4px;&quot;&gt;- last:Node&amp;lt;E&amp;gt;&lt;/p&gt;&lt;p style=&quot;margin:0px;margin-left:4px;&quot;&gt;- count:int&lt;/p&gt;&lt;p style=&quot;margin:0px;margin-left:4px;&quot;&gt;- capacity:int //容量&lt;/p&gt;&lt;p style=&quot;margin:0px;margin-left:4px;&quot;&gt;- lock:&lt;b&gt;ReentrantLock&lt;/b&gt;&lt;/p&gt;&lt;p style=&quot;margin:0px;margin-left:4px;&quot;&gt;- notEmpty:&lt;b&gt;Condition //take()时阻塞实现 noteEmpty.await()&lt;/b&gt;&lt;/p&gt;&lt;p style=&quot;margin:0px;margin-left:4px;&quot;&gt;- notFull:&lt;b&gt;Condition&amp;nbsp; &amp;nbsp;//put(e)时阻塞实现 notFull.await()&lt;/b&gt;&lt;/p&gt;&lt;hr size=&quot;1&quot; style=&quot;border-style:solid;&quot;&gt;&lt;p style=&quot;margin:0px;margin-left:4px;&quot;&gt;- linkFirst(Node&amp;lt;E&amp;gt;):boolean&amp;nbsp; // 链接头 notEmpty.signal()&lt;/p&gt;&lt;p style=&quot;margin:0px;margin-left:4px;&quot;&gt;- linkLast(Node&amp;lt;E&amp;gt;):boolean&amp;nbsp; // 链接尾 notEmpty.signal()&lt;br&gt;&lt;/p&gt;&lt;p style=&quot;margin:0px;margin-left:4px;&quot;&gt;- unLinkFirst():E&amp;nbsp; &amp;nbsp;//移除头 notFull.signal()&lt;/p&gt;&lt;p style=&quot;margin:0px;margin-left:4px;&quot;&gt;- unLinkLast():E&amp;nbsp; &amp;nbsp;//移除尾 notFull.signal()&lt;br&gt;&lt;/p&gt;&lt;p style=&quot;margin:0px;margin-left:4px;&quot;&gt;+ putLast(E):void&amp;nbsp; //阻塞链接尾，添加&lt;/p&gt;&lt;p style=&quot;margin:0px;margin-left:4px;&quot;&gt;+ takeFirst():E&amp;nbsp; &amp;nbsp; &amp;nbsp; //阻塞取头，并删除&lt;/p&gt;&lt;p style=&quot;margin:0px;margin-left:4px;&quot;&gt;+ offerLast(e):boolean // 连接最后，当count大于capacity才返回false&lt;/p&gt;&lt;p style=&quot;margin:0px;margin-left:4px;&quot;&gt;&lt;br&gt;&lt;/p&gt;" style="verticalAlign=top;align=left;overflow=fill;html=1;whiteSpace=wrap;strokeColor=default;fontFamily=Helvetica;fontSize=12;fontColor=default;fillColor=default;" parent="1" vertex="1">
          <mxGeometry x="1280" y="630" width="440" height="330" as="geometry" />
        </mxCell>
        <mxCell id="81L4wlxiSWu801nx8BuZ-166" value="" style="endArrow=block;dashed=1;endFill=0;endSize=12;html=1;rounded=0;fontFamily=Helvetica;fontSize=12;fontColor=default;exitX=0.444;exitY=0.006;exitDx=0;exitDy=0;exitPerimeter=0;entryX=0.797;entryY=0.941;entryDx=0;entryDy=0;entryPerimeter=0;" parent="1" source="81L4wlxiSWu801nx8BuZ-165" target="81L4wlxiSWu801nx8BuZ-158" edge="1">
          <mxGeometry width="160" relative="1" as="geometry">
            <mxPoint x="1027.04" y="637.69" as="sourcePoint" />
            <mxPoint x="540" y="500" as="targetPoint" />
          </mxGeometry>
        </mxCell>
        <mxCell id="81L4wlxiSWu801nx8BuZ-167" value="" style="endArrow=block;dashed=1;endFill=0;endSize=12;html=1;rounded=0;fontFamily=Helvetica;fontSize=12;fontColor=default;exitX=0.444;exitY=0.013;exitDx=0;exitDy=0;exitPerimeter=0;entryX=0.604;entryY=0.997;entryDx=0;entryDy=0;entryPerimeter=0;" parent="1" source="81L4wlxiSWu801nx8BuZ-165" target="81L4wlxiSWu801nx8BuZ-155" edge="1">
          <mxGeometry width="160" relative="1" as="geometry">
            <mxPoint x="980" y="570" as="sourcePoint" />
            <mxPoint x="1140" y="570" as="targetPoint" />
          </mxGeometry>
        </mxCell>
        <mxCell id="ZqdZeirsNgzGF7iQw4f_-1" value="&lt;p style=&quot;margin:0px;margin-top:4px;text-align:center;&quot;&gt;&lt;i&gt;&amp;lt;&amp;lt;Interface&amp;gt;&amp;gt;&lt;/i&gt;&lt;br&gt;&lt;b&gt;Map&amp;lt;K,V&amp;gt;&lt;/b&gt;&lt;/p&gt;&lt;p style=&quot;margin:0px;margin-left:4px;&quot;&gt;&lt;br&gt;&lt;/p&gt;&lt;hr size=&quot;1&quot; style=&quot;border-style:solid;&quot;&gt;&lt;p style=&quot;margin:0px;margin-left:4px;&quot;&gt;+ size():int&lt;/p&gt;&lt;p style=&quot;margin:0px;margin-left:4px;&quot;&gt;+ isEmpty():boolean&lt;/p&gt;&lt;p style=&quot;margin:0px;margin-left:4px;&quot;&gt;+ containsKey(key:Object):boolean&lt;/p&gt;&lt;p style=&quot;margin:0px;margin-left:4px;&quot;&gt;+ get(key:Object):V&lt;/p&gt;&lt;p style=&quot;margin:0px;margin-left:4px;&quot;&gt;+ put(key:K,value:V):V&lt;/p&gt;&lt;p style=&quot;margin:0px;margin-left:4px;&quot;&gt;+ remove(key:Object):V&lt;/p&gt;&lt;p style=&quot;margin:0px;margin-left:4px;&quot;&gt;+ putAll(Map&amp;lt;?,?&amp;gt;):void&lt;/p&gt;&lt;p style=&quot;margin:0px;margin-left:4px;&quot;&gt;+ clear():void&lt;/p&gt;&lt;p style=&quot;margin:0px;margin-left:4px;&quot;&gt;+ keySet():Set&amp;lt;K&amp;gt;&lt;/p&gt;&lt;p style=&quot;margin:0px;margin-left:4px;&quot;&gt;+ values():Collection&amp;lt;V&amp;gt;&lt;/p&gt;&lt;p style=&quot;margin:0px;margin-left:4px;&quot;&gt;+ entrySet():Map.entry&amp;lt;K,V&amp;gt;&lt;/p&gt;&lt;p style=&quot;margin:0px;margin-left:4px;&quot;&gt;&lt;br&gt;&lt;/p&gt;" style="verticalAlign=top;align=left;overflow=fill;html=1;whiteSpace=wrap;" vertex="1" parent="1">
          <mxGeometry x="-2370" y="-560" width="240" height="240" as="geometry" />
        </mxCell>
      </root>
    </mxGraphModel>
  </diagram>
</mxfile>
